<?xml version="1.0" standalone="no"?>
<!DOCTYPE svg PUBLIC "-//W3C//DTD SVG 20010904//EN"
 "http://www.w3.org/TR/2001/REC-SVG-20010904/DTD/svg10.dtd">
<svg version="1.0" xmlns="http://www.w3.org/2000/svg"
 width="4001.000000pt" height="4001.000000pt" viewBox="0 0 4001.000000 4001.000000"
 preserveAspectRatio="xMidYMid meet">

<g transform="translate(0.000000,4001.000000) scale(0.100000,-0.100000)"
fill="#000000" stroke="none">
<path d="M0 20005 l0 -20005 20005 0 20005 0 0 20005 0 20005 -20005 0 -20005
0 0 -20005z m40000 0 l0 -19995 -19995 0 -19995 0 0 19995 0 19995 19995 0
19995 0 0 -19995z"/>
<path d="M13957 35222 c-3 -4 -28 -98 -56 -209 -175 -701 -305 -1533 -365
-2343 -52 -702 -52 -1465 0 -2145 113 -1485 482 -2872 1078 -4063 53 -107 91
-190 84 -186 -7 5 -314 224 -683 488 -368 264 -913 653 -1210 866 -297 212
-724 518 -948 679 -225 161 -411 290 -414 287 -19 -19 191 -754 336 -1172 684
-1978 1734 -3727 3022 -5036 l174 -177 750 -207 c413 -114 752 -210 755 -212
3 -3 0 -7 -7 -9 -7 -2 -9 -11 -6 -19 11 -30 -32 -314 -48 -314 -4 0 -5 -8 -2
-18 5 -19 -4 -93 -30 -242 -8 -47 -20 -123 -26 -170 -15 -113 -31 -215 -41
-270 -5 -25 -14 -88 -20 -140 -6 -52 -18 -126 -26 -164 -8 -39 -22 -120 -29
-180 -28 -212 -40 -279 -51 -283 -14 -5 -376 146 -619 257 -1468 671 -3020
1733 -4234 2895 -63 61 -111 103 -106 95 20 -36 206 -306 293 -425 732 -1005
1715 -2023 2700 -2798 614 -483 1285 -921 1887 -1232 l160 -83 940 58 c517 32
985 61 1040 64 55 4 575 36 1155 72 980 60 1057 64 1083 49 15 -9 27 -12 27
-6 0 5 -8 12 -17 14 -10 3 -6 4 9 4 15 -1 24 -5 22 -9 -3 -4 1 -8 8 -8 8 -1 6
-6 -6 -15 -11 -8 -14 -15 -8 -15 9 0 12 -198 12 -844 0 -465 4 -847 8 -850 16
-10 31 10 35 49 l4 40 1 -46 c2 -39 -1 -47 -20 -56 -13 -6 -27 -11 -32 -11 -5
0 -13 -6 -17 -14 -7 -10 -9 -10 -9 2 0 11 -2 12 -8 2 -10 -14 -2 -13 -237 -58
-431 -83 -879 -137 -1377 -164 -252 -14 -978 -14 -1208 0 -1213 71 -2383 288
-3615 670 -647 201 -1414 493 -1939 739 -60 28 -111 50 -113 48 -2 -2 54 -47
124 -99 942 -699 2183 -1375 3340 -1819 832 -319 1700 -557 2493 -684 l166
-26 1469 586 c809 322 1713 683 2010 801 l540 216 125 -124 c142 -141 359
-347 387 -366 10 -7 13 -11 7 -8 -6 3 -11 -1 -11 -9 0 -8 4 -12 8 -10 16 11
39 -8 33 -27 -3 -10 1 -29 8 -41 8 -12 13 -32 12 -45 -1 -13 3 -21 10 -19 8 3
10 -21 8 -79 -2 -47 1 -84 6 -84 5 0 15 -54 22 -120 7 -66 17 -120 21 -120 5
0 8 -34 7 -76 0 -42 4 -79 10 -83 5 -3 11 -45 13 -93 3 -72 7 -90 24 -103 11
-9 14 -13 7 -10 -8 4 -22 -2 -33 -14 -21 -22 -12 -30 9 -9 9 9 12 8 12 -5 0
-15 -6 -19 -26 -16 -4 0 -10 -4 -13 -10 -4 -6 -85 -48 -181 -94 -1509 -726
-3387 -1087 -5398 -1036 -445 11 -904 41 -1217 79 -44 6 -86 10 -95 9 -22 -1
216 -81 426 -144 1176 -349 2548 -536 3744 -510 168 3 315 9 328 12 12 3 22 0
22 -5 0 -6 -51 -89 -114 -184 -873 -1331 -1867 -3001 -2581 -4338 -287 -537
-305 -572 -305 -581 0 -5 10 -7 23 -4 85 19 313 55 323 51 7 -3 16 -1 19 4 6
10 35 2 33 -8 -2 -23 4 -33 17 -28 12 4 15 -3 15 -35 0 -32 4 -42 20 -46 20
-5 28 -39 10 -45 -6 -2 -6 -8 0 -18 8 -13 10 -12 10 3 0 9 5 17 10 17 6 0 10
-9 10 -19 0 -10 7 -21 15 -25 8 -3 15 -12 15 -20 0 -8 5 -16 12 -18 7 -3 12
-23 12 -45 1 -28 5 -39 14 -36 7 3 12 -3 12 -15 0 -11 -5 -22 -12 -24 -9 -3
-9 -6 0 -12 7 -4 12 -2 12 3 0 6 8 11 18 11 16 0 42 -40 42 -67 0 -7 4 -13 9
-13 5 0 11 -8 15 -18 3 -9 15 -30 25 -47 11 -16 28 -45 37 -62 9 -18 20 -33
25 -33 5 0 9 -11 9 -24 0 -35 10 -56 26 -56 17 0 19 -37 2 -42 -9 -3 -9 -6 0
-12 7 -4 12 -2 12 3 0 6 5 11 10 11 6 0 10 -9 10 -19 0 -10 7 -21 15 -25 8 -3
15 -12 15 -21 0 -8 4 -15 9 -15 5 0 12 -8 15 -18 18 -47 42 -82 52 -72 6 6 10
3 10 -11 0 -55 -470 -533 -811 -824 -997 -854 -2414 -1593 -3830 -2000 -88
-25 -164 -48 -170 -50 -32 -14 451 28 695 61 1334 179 2607 613 3645 1242 165
100 485 314 507 339 9 10 137 349 286 753 509 1384 573 1555 582 1558 5 2 6
10 3 19 -4 10 0 14 13 12 27 -4 65 11 59 22 -4 5 -4 9 -1 9 3 0 10 -9 15 -19
9 -16 8 -18 -8 -14 -12 3 -20 -2 -23 -15 -4 -15 -1 -18 18 -14 17 3 24 0 24
-11 0 -17 21 -27 56 -27 13 0 24 -4 24 -8 0 -5 11 -15 25 -22 14 -7 25 -18 25
-23 0 -12 42 -46 59 -47 7 0 11 -6 8 -13 -4 -10 2 -13 19 -9 17 3 24 0 24 -11
0 -17 21 -27 56 -27 13 0 24 -4 24 -8 0 -5 11 -15 25 -22 14 -7 25 -19 25 -26
0 -6 7 -15 16 -18 9 -3 14 -12 11 -20 -4 -9 2 -12 21 -8 19 4 24 2 20 -10 -5
-11 0 -14 18 -10 19 3 24 0 24 -17 0 -18 6 -21 40 -21 26 0 39 -4 38 -12 -2
-7 7 -14 20 -16 14 -2 22 -10 22 -23 0 -13 7 -19 21 -19 16 0 20 -5 17 -18 -4
-15 -1 -18 20 -14 19 4 24 1 20 -10 -5 -11 0 -14 18 -10 16 3 24 0 24 -9 0 -8
10 -19 23 -24 12 -6 21 -17 19 -27 -3 -22 11 -30 53 -30 33 0 34 -1 28 -31 -3
-18 -26 -99 -50 -181 -290 -979 -874 -1988 -1699 -2931 -149 -171 -592 -622
-779 -794 l-100 -92 125 72 c224 129 423 259 670 437 156 113 155 112 370 284
730 583 1352 1284 1799 2027 l93 153 -31 552 c-62 1116 -74 1376 -68 1382 7 7
958 177 962 172 11 -12 25 -344 25 -569 0 -570 -60 -1057 -206 -1669 -110
-463 -309 -1043 -500 -1464 -35 -77 -62 -141 -60 -143 5 -6 149 191 243 332
562 843 960 1819 1113 2727 48 288 80 633 80 868 l0 96 48 12 c110 29 442 140
642 214 844 314 1550 716 2161 1229 173 145 555 528 693 694 494 595 836 1216
1091 1980 230 688 346 1316 430 2330 l16 189 32 28 32 27 -30 1 -31 0 13 168
c90 1190 154 1651 262 1873 150 311 422 459 843 459 107 0 293 -22 378 -45 30
-8 55 -13 56 -12 1 1 -18 34 -44 72 -62 94 -276 306 -389 385 -385 270 -635
344 -1163 344 -240 0 -366 -10 -595 -45 -821 -128 -1688 -514 -2537 -1130 -62
-45 -133 -98 -158 -118 -24 -20 -41 -30 -36 -23 4 6 3 12 -2 12 -6 0 -12 -7
-16 -15 -7 -20 -25 -19 -22 0 6 43 583 585 904 850 l134 110 -6 40 c-30 217
-40 947 -17 1300 61 957 223 1943 507 3080 80 320 149 584 164 625 5 14 11 46
14 73 3 26 8 52 12 58 4 6 1 15 -7 20 -11 6 -10 11 4 27 9 10 17 23 17 28 0 5
-5 1 -11 -8 -5 -9 -16 -15 -23 -12 -8 3 -17 0 -22 -7 -4 -7 -3 -10 3 -6 6 4
13 -2 16 -13 6 -22 -8 -28 -16 -7 -2 6 -8 9 -12 5 -4 -4 -3 -14 4 -22 9 -11 4
-11 -24 2 -19 9 -35 20 -35 24 0 4 -26 9 -57 9 -32 1 -50 3 -40 6 9 2 17 9 17
15 0 6 -10 8 -25 4 -29 -7 -77 2 -70 14 3 4 -2 11 -11 14 -24 9 -31 7 -14 -4
23 -15 -4 -13 -60 4 -34 10 -40 15 -25 19 11 2 -8 5 -42 6 -34 0 -64 5 -67 9
-3 5 -31 15 -62 22 -44 11 -52 16 -38 22 12 5 8 6 -13 2 -24 -4 -36 -1 -48 14
-13 15 -28 18 -68 16 -29 -2 -42 0 -29 2 36 9 26 27 -12 20 -18 -4 -44 -2 -57
3 -13 5 -19 10 -14 11 12 0 -16 20 -30 20 -5 0 -3 -5 5 -11 11 -8 6 -9 -20 -5
-19 4 -40 14 -47 22 -9 13 -23 15 -57 12 -25 -3 -45 -3 -44 1 0 3 0 13 -2 21
-1 11 -4 9 -10 -5 l-9 -20 -1 20 -1 20 -9 -20 c-12 -29 -12 142 0 365 42 747
220 1530 525 2300 328 830 803 1669 1357 2398 60 79 108 145 106 147 -5 5
-207 -172 -394 -346 -348 -324 -743 -767 -1055 -1184 -772 -1031 -1247 -2096
-1434 -3215 -12 -74 -25 -128 -29 -120 -8 19 -420 1227 -643 1885 -91 270
-169 494 -173 498 -15 17 -179 -445 -275 -773 -272 -931 -403 -1931 -367
-2802 13 -311 39 -582 78 -843 l26 -170 299 -372 c165 -205 304 -384 309 -398
5 -14 12 -25 15 -25 4 0 3 5 -1 12 -5 7 -3 8 5 3 17 -10 1 -26 -28 -28 -13 -1
-20 -6 -17 -14 3 -7 2 -13 -2 -13 -11 0 -287 -272 -287 -282 0 -4 -32 -39 -72
-77 -42 -41 -67 -72 -60 -75 7 -3 6 -5 -4 -5 -21 -1 -160 -141 -152 -154 3 -5
1 -7 -4 -4 -6 4 -19 -3 -29 -14 -10 -11 -23 -18 -30 -15 -6 2 -11 -1 -11 -7 1
-37 -4 -57 -13 -52 -5 3 -20 -6 -33 -21 -22 -25 -56 -27 -41 -2 4 7 2 8 -4 4
-9 -5 -8 -13 3 -29 8 -13 11 -28 6 -35 -7 -11 -10 -10 -14 3 -5 10 -3 14 5 9
7 -4 8 -3 4 5 -10 16 -26 4 -19 -14 3 -8 1 -15 -4 -15 -10 0 -158 237 -263
420 -97 170 -301 578 -393 785 -294 665 -526 1393 -672 2105 l-44 215 0 -285
c-3 -1303 314 -2704 855 -3783 l69 -137 790 -496 c435 -272 946 -593 1137
-712 191 -119 349 -223 353 -231 8 -19 -15 -45 -29 -31 -5 5 -15 10 -20 10
-13 0 -46 -56 -38 -64 12 -13 22 -5 22 20 0 14 5 24 11 22 6 -2 10 -7 10 -11
-1 -4 -1 -13 -1 -21 0 -8 -9 -18 -20 -21 -12 -4 -17 -11 -13 -18 4 -7 -1 -6
-11 2 -26 21 -44 -1 -30 -37 8 -21 7 -31 -3 -41 -8 -7 -17 -10 -21 -6 -3 3 0
10 7 15 9 5 11 15 7 26 -6 15 -11 10 -32 -26 -20 -35 -23 -49 -15 -62 13 -20
1 -24 -17 -6 -9 9 -12 5 -13 -17 -1 -17 -3 -23 -6 -12 -2 9 -9 17 -14 17 -12
0 -23 -46 -15 -66 5 -13 2 -15 -14 -11 -11 3 -18 2 -16 -2 3 -4 -8 -20 -25
-35 -31 -30 -36 -45 -17 -64 9 -9 9 -15 -1 -24 -11 -10 -14 -10 -18 0 -7 19
-33 14 -33 -7 0 -11 -5 -21 -12 -23 -7 -3 -13 -21 -13 -41 -2 -42 -23 -73 -39
-57 -5 5 -17 10 -25 10 -11 0 -11 -4 3 -19 19 -21 8 -35 -19 -25 -14 6 -16 3
-10 -14 5 -16 2 -22 -9 -22 -9 0 -16 -5 -16 -10 0 -11 -15 -31 -38 -53 -61
-56 -68 -82 -27 -97 14 -5 25 -12 25 -15 0 -4 -4 -4 -9 -1 -5 4 -11 1 -13 -4
-4 -12 -245 150 -420 282 -353 266 -768 651 -1087 1008 -52 58 -110 123 -130
145 -147 163 -406 486 -597 745 -590 796 -1126 1688 -1677 2790 -502 1002
-933 2000 -1404 3250 -63 168 -124 326 -135 352 -21 49 -51 66 -77 45 -12 -10
-13 -9 -6 3 14 22 15 42 4 59 -8 14 -9 14 -7 1 2 -8 -2 -17 -7 -18 -6 -2 -16
-9 -23 -15 -12 -9 -11 -12 5 -18 17 -7 17 -8 0 -8 -10 -1 -37 -11 -59 -22 -28
-14 -43 -18 -46 -10 -2 6 -15 11 -29 11 -17 0 -23 -4 -20 -14 8 -19 -55 -46
-111 -47 -26 -1 -58 -5 -72 -9 -25 -8 -25 -8 5 -9 l30 -2 -39 -19 c-22 -11
-44 -19 -50 -18 -15 3 -108 -33 -127 -49 -21 -17 -30 -17 -23 2 4 8 1 15 -5
15 -6 0 -11 -7 -11 -16 0 -13 -8 -14 -46 -8 -36 5 -45 4 -39 -6 4 -6 16 -9 27
-7 34 9 9 -6 -40 -25 -26 -10 -57 -18 -68 -18 -12 0 -27 -7 -34 -15 -7 -8 -24
-15 -39 -14 l-26 1 24 7 c14 4 26 12 29 19 5 16 -10 15 -44 -3 -16 -8 -41 -15
-56 -15 -16 0 -28 -5 -28 -11 0 -5 -14 -15 -32 -21 -28 -10 -29 -12 -12 -18
16 -6 14 -8 -13 -14 -18 -4 -35 -12 -38 -17 -4 -5 -21 -9 -39 -9 -17 0 -37 -5
-43 -11 -6 -6 -37 -22 -67 -34 -54 -22 -56 -22 -56 -4 0 21 -8 23 -29 10 -7
-5 -11 -13 -7 -19 3 -6 2 -13 -4 -17 -5 -3 -10 -1 -10 4 0 18 -25 13 -54 -10
-16 -12 -35 -19 -46 -16 -11 3 -23 1 -26 -4 -3 -5 1 -9 8 -9 7 0 -11 -11 -40
-25 -37 -17 -62 -23 -84 -18 -20 4 -29 3 -25 -4 4 -6 0 -16 -8 -23 -8 -7 -12
-16 -9 -21 3 -5 -2 -6 -10 -3 -18 7 -22 25 -5 22 6 -2 13 2 15 8 3 6 -13 11
-38 12 -49 3 -75 26 -56 49 9 11 13 12 19 1 5 -7 9 -8 9 -2 0 19 -12 23 -31
11 -22 -14 -8 -31 -161 194 -235 347 -441 704 -657 1139 -670 1350 -1105 2944
-1280 4695 -21 202 -41 467 -62 780 -12 192 -20 1350 -10 1523 3 61 5 112 4
112 -1 0 -4 -3 -6 -8z m2963 -8267 c-14 -17 -40 -20 -40 -6 0 8 18 16 44 20 5
0 3 -6 -4 -14z m7000 -7526 c0 -11 -4 -17 -10 -14 -5 3 -10 13 -10 21 0 8 5
14 10 14 6 0 10 -9 10 -21z m-30 -48 c0 -5 -9 -11 -20 -14 -11 -3 -24 -17 -30
-32 -6 -15 -13 -25 -17 -22 -9 9 48 88 58 81 5 -3 9 -9 9 -13z m-105 -41 c3
-5 1 -10 -4 -10 -6 0 -11 5 -11 10 0 6 2 10 4 10 3 0 8 -4 11 -10z m-7 -90
c-7 -11 -19 -22 -28 -25 -8 -4 -4 5 9 19 29 31 36 33 19 6z m-57 -79 c-7 -5
-10 -14 -7 -20 4 -6 1 -18 -8 -26 -16 -16 -26 -19 -26 -7 0 15 41 74 48 68 3
-4 0 -11 -7 -15z m-43 -86 c-3 -3 -9 2 -12 12 -6 14 -5 15 5 6 7 -7 10 -15 7
-18z m-33 -45 c-3 -5 -10 -10 -16 -10 -5 0 -9 5 -9 10 0 6 7 10 16 10 8 0 12
-4 9 -10z m-3066 -92 c-16 -11 -16 -13 0 -27 9 -9 12 -13 7 -8 -14 10 -28 9
-21 -2 3 -5 1 -12 -4 -15 -5 -4 -12 -2 -15 3 -4 5 -2 12 3 15 5 3 7 15 4 26
-4 16 -1 20 18 19 21 0 22 -2 8 -11z m2975 -22 c-3 -9 -12 -16 -20 -16 -11 0
-10 4 3 20 19 22 26 21 17 -4z m-34 -57 c0 -18 -2 -19 -15 -9 -15 12 -12 30 6
30 5 0 9 -10 9 -21z m-30 -47 c0 -4 -11 -12 -25 -18 -24 -12 -24 -12 -7 11 15
21 32 24 32 7z m-110 -82 c0 -5 -5 -10 -11 -10 -5 0 -7 5 -4 10 3 6 8 10 11
10 2 0 4 -4 4 -10z m8 -54 c-8 -6 -17 -20 -21 -30 -6 -15 -10 -17 -19 -8 -10
10 -6 19 17 40 17 15 32 23 34 18 2 -5 -3 -14 -11 -20z m-626 -1894 c-6 -15
-7 -15 -10 1 -2 9 -7 17 -11 17 -4 0 -8 7 -8 15 0 13 3 13 18 -1 11 -9 15 -23
11 -32z m1118 -742 c408 -220 885 -399 1333 -501 l98 -22 -80 -74 c-224 -207
-569 -491 -832 -683 -1118 -815 -2534 -1477 -4008 -1874 -113 -31 -206 -54
-207 -53 -2 1 396 369 882 817 487 448 1287 1185 1777 1637 491 452 895 822
900 822 4 1 66 -31 137 -69z m-1000 -94 c0 -2 -8 -10 -17 -17 -16 -13 -17 -12
-4 4 13 16 21 21 21 13z m-3575 -6563 c-11 -10 -14 -11 -7 -3 13 16 16 31 5
29 -18 -3 -24 2 -17 12 4 7 11 6 22 -5 15 -15 15 -17 -3 -33z m-1446 -226 c8
-10 7 -14 -2 -14 -8 0 -14 6 -14 14 0 7 1 13 2 13 2 0 8 -6 14 -13z m2340
-341 c10 -12 9 -14 -5 -12 -10 2 -20 8 -22 14 -5 17 13 15 27 -2z m-34 -26
c-3 -5 -13 -10 -21 -10 -8 0 -14 5 -14 10 0 6 9 10 21 10 11 0 17 -4 14 -10z
m-1785 -514 c0 -12 -5 -7 -19 24 -11 24 -11 24 3 6 9 -11 16 -24 16 -30z"/>
<path d="M17804 27293 c1 -18 14 -33 28 -33 4 0 2 11 -4 25 -13 29 -26 33 -24
8z"/>
<path d="M17665 27240 c-3 -5 -1 -10 4 -10 6 0 11 5 11 10 0 6 -2 10 -4 10 -3
0 -8 -4 -11 -10z"/>
<path d="M17500 27195 c0 -9 9 -15 24 -15 13 0 26 7 30 15 4 11 -2 15 -24 15
-20 0 -30 -5 -30 -15z"/>
<path d="M17323 27137 c-24 -5 -43 -14 -43 -18 0 -12 27 -11 35 1 3 6 16 10
28 10 12 0 29 5 37 10 13 9 13 10 0 9 -8 -1 -34 -6 -57 -12z"/>
<path d="M17020 27020 c0 -5 5 -10 10 -10 6 0 10 5 10 10 0 6 -4 10 -10 10 -5
0 -10 -4 -10 -10z"/>
<path d="M16720 26915 c0 -17 2 -18 24 -9 18 7 12 24 -10 24 -8 0 -14 -7 -14
-15z"/>
<path d="M16632 26880 c-7 -12 -8 -20 -2 -20 5 0 10 5 10 10 0 6 6 10 14 10 8
0 18 5 21 10 3 6 -2 10 -12 10 -10 0 -24 -9 -31 -20z"/>
<path d="M25080 24910 c0 -5 9 -10 20 -10 11 0 20 5 20 10 0 6 -9 10 -20 10
-11 0 -20 -4 -20 -10z"/>
<path d="M16346 21133 c-6 -14 -5 -15 5 -6 7 7 10 15 7 18 -3 3 -9 -2 -12 -12z"/>
<path d="M16186 20094 c-3 -9 -4 -19 -1 -22 3 -3 5 1 5 9 0 11 2 11 10 -1 5
-8 10 -10 10 -5 0 6 -4 16 -9 23 -6 11 -10 10 -15 -4z"/>
<path d="M23465 18937 c-4 -10 -5 -21 -1 -24 10 -10 18 4 13 24 -4 17 -4 17
-12 0z"/>
<path d="M20476 18895 c-3 -9 -5 -285 -4 -613 1 -328 5 -559 8 -512 3 49 7
-51 10 -240 4 -210 6 -28 8 515 1 462 -2 846 -7 853 -7 11 -10 10 -15 -3z"/>
<path d="M20510 18052 c0 -579 3 -842 10 -842 8 0 9 258 4 838 -4 460 -8 839
-10 841 -2 2 -4 -374 -4 -837z"/>
<path d="M20467 17636 c-4 -10 -5 -21 -2 -24 9 -9 17 6 13 25 -3 17 -4 17 -11
-1z"/>
<path d="M20526 17188 c3 -5 10 -6 15 -3 13 9 11 12 -6 12 -8 0 -12 -4 -9 -9z"/>
<path d="M22669 16843 c-12 -16 -12 -17 2 -6 9 7 20 9 24 5 5 -4 5 -1 1 6 -9
16 -11 15 -27 -5z"/>
<path d="M22670 16820 c-9 -6 -10 -10 -3 -10 6 0 15 5 18 10 8 12 4 12 -15 0z"/>
<path d="M17364 9078 l-29 -33 33 29 c30 28 37 36 29 36 -2 0 -16 -15 -33 -32z"/>
</g>
</svg>
